<svg xmlns="http://www.w3.org/2000/svg" xmlns:xlink="http://www.w3.org/1999/xlink" width="174" zoomAndPan="magnify" viewBox="0 0 130.5 153.749995" height="205" preserveAspectRatio="xMidYMid meet" version="1.0"><defs><g/><clipPath id="b4baa09561"><path d="M 2 0.167969 L 128 0.167969 L 128 153.332031 L 2 153.332031 Z M 2 0.167969 " clip-rule="nonzero"/></clipPath><clipPath id="7d2d35b519"><path d="M 8.542969 19 L 34 19 L 34 44 L 8.542969 44 Z M 8.542969 19 " clip-rule="nonzero"/></clipPath><clipPath id="1979ca6145"><path d="M 13 14.042969 L 39 14.042969 L 39 39 L 13 39 Z M 13 14.042969 " clip-rule="nonzero"/></clipPath><clipPath id="42aec14452"><path d="M 28 48 L 34 48 L 34 53.640625 L 28 53.640625 Z M 28 48 " clip-rule="nonzero"/></clipPath><clipPath id="02b6f62edc"><path d="M 28 51 L 30 51 L 30 53.640625 L 28 53.640625 Z M 28 51 " clip-rule="nonzero"/></clipPath><clipPath id="656abba07e"><path d="M 47 47 L 48.144531 47 L 48.144531 49 L 47 49 Z M 47 47 " clip-rule="nonzero"/></clipPath><clipPath id="c09b547c0c"><path d="M 28 52 L 33 52 L 33 53.640625 L 28 53.640625 Z M 28 52 " clip-rule="nonzero"/></clipPath><clipPath id="f7d160d721"><path d="M 32 52 L 33 52 L 33 53.640625 L 32 53.640625 Z M 32 52 " clip-rule="nonzero"/></clipPath><clipPath id="ec868430d8"><path d="M 91 13.84375 L 116 13.84375 L 116 39 L 91 39 Z M 91 13.84375 " clip-rule="nonzero"/></clipPath><clipPath id="7df16851b2"><path d="M 96 19 L 120.96875 19 L 120.96875 44 L 96 44 Z M 96 19 " clip-rule="nonzero"/></clipPath><clipPath id="c2f52727f2"><path d="M 81.371094 34 L 87 34 L 87 39 L 81.371094 39 Z M 81.371094 34 " clip-rule="nonzero"/></clipPath><clipPath id="82f37b2b6e"><path d="M 81.371094 33 L 84 33 L 84 36 L 81.371094 36 Z M 81.371094 33 " clip-rule="nonzero"/></clipPath><clipPath id="9b14b80912"><path d="M 83 49 L 88 49 L 88 53.441406 L 83 53.441406 Z M 83 49 " clip-rule="nonzero"/></clipPath><clipPath id="6746c3aa19"><path d="M 86 52 L 88 52 L 88 53.441406 L 86 53.441406 Z M 86 52 " clip-rule="nonzero"/></clipPath><clipPath id="f4e7234922"><path d="M 81.371094 33 L 83 33 L 83 39 L 81.371094 39 Z M 81.371094 33 " clip-rule="nonzero"/></clipPath><clipPath id="57253b5322"><path d="M 81.371094 37 L 83 37 L 83 39 L 81.371094 39 Z M 81.371094 37 " clip-rule="nonzero"/></clipPath></defs><path fill="#000000" d="M 63.800781 144.945312 C 84.21875 130.574219 104.054688 116.554688 113.144531 95.171875 C 122.273438 73.695312 120.675781 44.589844 119.007812 14.847656 L 120.992188 16.554688 C 113.265625 17.285156 105.425781 18.027344 98.308594 18.027344 C 94.707031 18.027344 91.257812 17.839844 88.0625 17.351562 C 78.515625 15.898438 71.574219 11.824219 64.921875 7.9375 L 66.535156 8.042969 L 66.425781 8.089844 C 55.402344 12.703125 44.066406 17.449219 34.527344 18.785156 C 32.421875 19.078125 30.410156 19.207031 28.464844 19.207031 C 21.472656 19.207031 15.417969 17.523438 9.613281 15.917969 L 11.914062 14.226562 L 11.910156 14.339844 C 10.882812 46.753906 9.925781 78.535156 18.855469 100.109375 C 27.71875 121.519531 46.433594 133.035156 65.792969 144.882812 L 63.800781 144.945312 M 65.890625 147.917969 C 65.296875 148.332031 64.515625 148.359375 63.898438 147.980469 C 44.710938 136.242188 24.886719 124.171875 15.5 101.496094 C 6.203125 79.035156 7.261719 46.324219 8.277344 14.226562 L 8.28125 14.226562 L 8.28125 14.109375 C 8.300781 13.554688 8.574219 13.035156 9.019531 12.707031 C 9.46875 12.375 10.046875 12.269531 10.582031 12.417969 C 16.433594 14.035156 22.03125 15.574219 28.464844 15.574219 C 30.246094 15.574219 32.09375 15.457031 34.023438 15.1875 C 42.996094 13.929688 53.847656 9.414062 65.023438 4.738281 L 65.136719 4.691406 C 65.660156 4.472656 66.261719 4.511719 66.753906 4.800781 C 73.433594 8.703125 79.828125 12.421875 88.609375 13.761719 C 91.566406 14.210938 94.824219 14.394531 98.308594 14.394531 C 105.222656 14.394531 112.882812 13.671875 120.648438 12.9375 C 121.140625 12.890625 121.628906 13.046875 122.003906 13.367188 C 122.378906 13.691406 122.605469 14.152344 122.632812 14.644531 C 124.289062 44.089844 126.019531 74.171875 116.488281 96.589844 C 106.917969 119.101562 86.113281 133.683594 65.890625 147.917969 Z M 65.890625 147.917969 " fill-opacity="1" fill-rule="nonzero"/><g clip-path="url(#b4baa09561)"><path fill="#000000" d="M 4.949219 5.375 L 4.96875 5.382812 C 13.445312 8.589844 21.71875 11.703125 31.753906 10.898438 C 32.265625 10.859375 32.78125 10.808594 33.300781 10.746094 C 43.082031 9.605469 54.4375 5.058594 65.960938 0.4375 C 66.230469 0.332031 66.535156 0.355469 66.785156 0.5 C 73.683594 4.582031 80.429688 8.566406 90.082031 9.800781 C 98.367188 10.863281 108.835938 9.910156 119.746094 8.636719 C 121.613281 8.417969 123.484375 8.191406 125.363281 7.964844 C 125.617188 7.933594 125.875 8.011719 126.074219 8.175781 C 126.273438 8.34375 126.394531 8.585938 126.40625 8.84375 L 126.410156 8.949219 C 128.179688 42.957031 129.972656 77.285156 119.878906 101.390625 C 109.746094 125.601562 87.683594 139.398438 65.960938 153.023438 C 65.675781 153.203125 65.3125 153.210938 65.015625 153.050781 L 64.960938 153.019531 C 42.917969 140.996094 20.507812 128.796875 10.226562 104.136719 C -0.0117188 79.5625 1.855469 42.710938 3.683594 6.199219 C 3.699219 5.902344 3.855469 5.628906 4.105469 5.464844 C 4.355469 5.300781 4.667969 5.269531 4.949219 5.375 M 4.285156 7.121094 L 5.550781 6.292969 C 3.710938 42.984375 1.910156 79.328125 11.953125 103.417969 C 21.9375 127.375 43.703125 139.300781 65.855469 151.378906 L 65.910156 151.410156 L 64.96875 151.441406 C 86.796875 137.753906 108.289062 124.242188 118.15625 100.667969 C 128.046875 77.046875 126.324219 43.21875 124.546875 9.046875 L 124.539062 8.941406 L 125.585938 9.820312 C 123.714844 10.042969 121.832031 10.273438 119.964844 10.492188 C 109.082031 11.761719 98.390625 12.75 89.84375 11.65625 C 79.769531 10.363281 72.726562 6.1875 65.835938 2.109375 L 66.65625 2.171875 C 55.210938 6.761719 43.597656 11.425781 33.515625 12.601562 C 32.976562 12.664062 32.4375 12.71875 31.902344 12.761719 C 21.394531 13.601562 12.75 10.324219 4.308594 7.128906 Z M 4.285156 7.121094 " fill-opacity="1" fill-rule="nonzero"/></g><g clip-path="url(#7d2d35b519)"><path fill="#000000" d="M 32.808594 43.777344 C 32.742188 43.777344 32.671875 43.75 32.617188 43.695312 L 8.648438 19.628906 C 8.542969 19.519531 8.542969 19.347656 8.648438 19.242188 C 8.753906 19.136719 8.925781 19.136719 9.03125 19.242188 L 33 43.3125 C 33.109375 43.417969 33.109375 43.589844 33 43.695312 C 32.949219 43.75 32.878906 43.777344 32.808594 43.777344 Z M 32.808594 43.777344 " fill-opacity="1" fill-rule="nonzero"/></g><path fill="#000000" d="M 32.203125 44.054688 C 32.523438 44.375 33.039062 44.375 33.359375 44.054688 C 33.675781 43.734375 33.675781 43.214844 33.359375 42.894531 C 33.039062 42.574219 32.523438 42.574219 32.203125 42.894531 C 31.886719 43.214844 31.886719 43.734375 32.203125 44.054688 Z M 32.203125 44.054688 " fill-opacity="1" fill-rule="nonzero"/><path fill="#000000" d="M 18.117188 26.351562 C 18.046875 26.351562 17.976562 26.324219 17.925781 26.273438 L 10.0625 18.375 C 9.957031 18.269531 9.957031 18.097656 10.0625 17.992188 C 10.167969 17.882812 10.339844 17.882812 10.445312 17.992188 L 18.308594 25.886719 C 18.414062 25.992188 18.414062 26.164062 18.308594 26.273438 C 18.253906 26.324219 18.1875 26.351562 18.117188 26.351562 Z M 18.117188 26.351562 " fill-opacity="1" fill-rule="nonzero"/><path fill="#000000" d="M 17.511719 26.628906 C 17.828125 26.949219 18.34375 26.949219 18.664062 26.628906 C 18.984375 26.308594 18.984375 25.789062 18.664062 25.46875 C 18.34375 25.152344 17.828125 25.152344 17.511719 25.46875 C 17.191406 25.789062 17.191406 26.308594 17.511719 26.628906 Z M 17.511719 26.628906 " fill-opacity="1" fill-rule="nonzero"/><path fill="#000000" d="M 26.980469 30.914062 C 26.914062 30.914062 26.84375 30.886719 26.789062 30.835938 L 12.054688 16.039062 C 11.949219 15.933594 11.949219 15.761719 12.054688 15.652344 C 12.160156 15.546875 12.335938 15.546875 12.441406 15.652344 L 27.175781 30.449219 C 27.28125 30.554688 27.28125 30.726562 27.175781 30.832031 C 27.121094 30.886719 27.050781 30.914062 26.980469 30.914062 Z M 26.980469 30.914062 " fill-opacity="1" fill-rule="nonzero"/><path fill="#000000" d="M 26.375 31.191406 C 26.695312 31.511719 27.210938 31.511719 27.53125 31.191406 C 27.847656 30.871094 27.847656 30.351562 27.53125 30.03125 C 27.210938 29.714844 26.695312 29.714844 26.375 30.03125 C 26.058594 30.351562 26.058594 30.871094 26.375 31.191406 Z M 26.375 31.191406 " fill-opacity="1" fill-rule="nonzero"/><g clip-path="url(#1979ca6145)"><path fill="#000000" d="M 38.246094 38.71875 C 38.179688 38.71875 38.109375 38.695312 38.054688 38.640625 L 14.050781 14.535156 C 13.945312 14.429688 13.945312 14.257812 14.050781 14.152344 C 14.15625 14.046875 14.328125 14.046875 14.433594 14.152344 L 38.4375 38.253906 C 38.542969 38.363281 38.542969 38.535156 38.4375 38.640625 C 38.386719 38.695312 38.316406 38.71875 38.246094 38.71875 Z M 38.246094 38.71875 " fill-opacity="1" fill-rule="nonzero"/></g><path fill="#000000" d="M 37.640625 39 C 37.960938 39.320312 38.476562 39.320312 38.796875 39 C 39.113281 38.679688 39.113281 38.160156 38.796875 37.839844 C 38.476562 37.519531 37.960938 37.519531 37.640625 37.839844 C 37.324219 38.160156 37.324219 38.679688 37.640625 39 Z M 37.640625 39 " fill-opacity="1" fill-rule="nonzero"/><path fill="#000000" d="M 33.214844 48.171875 C 33.066406 48.171875 32.945312 48.050781 32.945312 47.898438 L 32.945312 43.835938 C 32.945312 43.683594 33.066406 43.5625 33.214844 43.5625 C 33.367188 43.5625 33.488281 43.683594 33.488281 43.835938 L 33.488281 47.898438 C 33.488281 48.050781 33.367188 48.171875 33.214844 48.171875 Z M 33.214844 48.171875 " fill-opacity="1" fill-rule="nonzero"/><path fill="#000000" d="M 32.402344 47.859375 C 32.402344 48.3125 32.765625 48.679688 33.214844 48.679688 C 33.667969 48.679688 34.03125 48.3125 34.03125 47.859375 C 34.03125 47.40625 33.667969 47.039062 33.214844 47.039062 C 32.765625 47.039062 32.402344 47.40625 32.402344 47.859375 Z M 32.402344 47.859375 " fill-opacity="1" fill-rule="nonzero"/><path fill="#000000" d="M 38.671875 45.488281 C 38.523438 45.488281 38.402344 45.363281 38.402344 45.214844 L 38.402344 38.828125 C 38.402344 38.679688 38.523438 38.554688 38.671875 38.554688 C 38.824219 38.554688 38.945312 38.679688 38.945312 38.828125 L 38.945312 45.214844 C 38.945312 45.363281 38.824219 45.488281 38.671875 45.488281 Z M 38.671875 45.488281 " fill-opacity="1" fill-rule="nonzero"/><path fill="#000000" d="M 37.855469 45.171875 C 37.855469 45.625 38.222656 45.992188 38.671875 45.992188 C 39.125 45.992188 39.488281 45.625 39.488281 45.171875 C 39.488281 44.71875 39.125 44.351562 38.671875 44.351562 C 38.222656 44.351562 37.855469 44.71875 37.855469 45.171875 Z M 37.855469 45.171875 " fill-opacity="1" fill-rule="nonzero"/><path fill="#000000" d="M 27.265625 31.390625 C 27.195312 31.390625 27.125 31.363281 27.074219 31.3125 C 26.96875 31.203125 26.96875 31.03125 27.074219 30.925781 L 31.65625 26.324219 C 31.761719 26.21875 31.933594 26.21875 32.039062 26.324219 C 32.144531 26.429688 32.144531 26.601562 32.039062 26.707031 L 27.457031 31.3125 C 27.402344 31.363281 27.335938 31.390625 27.265625 31.390625 Z M 27.265625 31.390625 " fill-opacity="1" fill-rule="nonzero"/><path fill="#000000" d="M 32.398438 27.125 C 32.714844 26.804688 32.714844 26.285156 32.398438 25.964844 C 32.078125 25.644531 31.5625 25.644531 31.242188 25.964844 C 30.925781 26.285156 30.925781 26.804688 31.242188 27.125 C 31.5625 27.445312 32.078125 27.445312 32.398438 27.125 Z M 32.398438 27.125 " fill-opacity="1" fill-rule="nonzero"/><path fill="#000000" d="M 13.386719 31.757812 C 13.320312 31.757812 13.25 31.730469 13.195312 31.679688 C 13.089844 31.570312 13.089844 31.398438 13.195312 31.292969 L 18.292969 26.175781 C 18.398438 26.070312 18.570312 26.070312 18.675781 26.175781 C 18.78125 26.28125 18.78125 26.453125 18.675781 26.5625 L 13.578125 31.679688 C 13.527344 31.730469 13.457031 31.757812 13.386719 31.757812 Z M 13.386719 31.757812 " fill-opacity="1" fill-rule="nonzero"/><path fill="#000000" d="M 12.839844 30.878906 C 12.523438 31.195312 12.523438 31.714844 12.839844 32.035156 C 13.160156 32.355469 13.675781 32.355469 13.992188 32.035156 C 14.3125 31.714844 14.3125 31.195312 13.992188 30.878906 C 13.675781 30.558594 13.160156 30.558594 12.839844 30.878906 Z M 12.839844 30.878906 " fill-opacity="1" fill-rule="nonzero"/><path fill="#000000" d="M 16.917969 36.082031 C 16.847656 36.082031 16.777344 36.054688 16.726562 36.003906 L 12.695312 31.957031 C 12.589844 31.851562 12.589844 31.679688 12.695312 31.570312 C 12.800781 31.464844 12.972656 31.464844 13.078125 31.570312 L 17.109375 35.617188 C 17.214844 35.722656 17.214844 35.898438 17.109375 36.003906 C 17.054688 36.054688 16.984375 36.082031 16.917969 36.082031 Z M 16.917969 36.082031 " fill-opacity="1" fill-rule="nonzero"/><path fill="#000000" d="M 16.3125 36.359375 C 16.628906 36.679688 17.148438 36.679688 17.464844 36.359375 C 17.785156 36.039062 17.785156 35.523438 17.464844 35.203125 C 17.148438 34.882812 16.628906 34.882812 16.3125 35.203125 C 15.992188 35.523438 15.992188 36.039062 16.3125 36.359375 Z M 16.3125 36.359375 " fill-opacity="1" fill-rule="nonzero"/><path fill="#000000" d="M 35.925781 30.210938 C 35.855469 30.210938 35.789062 30.183594 35.734375 30.132812 L 32.003906 26.382812 C 31.898438 26.277344 31.898438 26.105469 32.003906 26 C 32.109375 25.894531 32.28125 25.894531 32.386719 26 L 36.117188 29.746094 C 36.222656 29.851562 36.222656 30.027344 36.117188 30.132812 C 36.066406 30.183594 35.996094 30.210938 35.925781 30.210938 Z M 35.925781 30.210938 " fill-opacity="1" fill-rule="nonzero"/><path fill="#000000" d="M 35.320312 30.488281 C 35.640625 30.808594 36.15625 30.808594 36.472656 30.488281 C 36.792969 30.167969 36.792969 29.648438 36.472656 29.332031 C 36.15625 29.011719 35.640625 29.011719 35.320312 29.332031 C 35.003906 29.648438 35.003906 30.167969 35.320312 30.488281 Z M 35.320312 30.488281 " fill-opacity="1" fill-rule="nonzero"/><path fill="#000000" d="M 44.085938 51.625 C 44.015625 51.625 43.949219 51.597656 43.894531 51.542969 L 38.375 46.003906 C 38.269531 45.894531 38.269531 45.722656 38.375 45.617188 C 38.480469 45.511719 38.652344 45.511719 38.757812 45.617188 L 44.277344 51.160156 C 44.382812 51.265625 44.382812 51.4375 44.277344 51.542969 C 44.226562 51.597656 44.15625 51.625 44.085938 51.625 Z M 44.085938 51.625 " fill-opacity="1" fill-rule="nonzero"/><path fill="#000000" d="M 43.480469 51.902344 C 43.800781 52.222656 44.316406 52.222656 44.636719 51.902344 C 44.953125 51.582031 44.953125 51.0625 44.636719 50.742188 C 44.316406 50.421875 43.800781 50.421875 43.480469 50.742188 C 43.164062 51.0625 43.164062 51.582031 43.480469 51.902344 Z M 43.480469 51.902344 " fill-opacity="1" fill-rule="nonzero"/><g clip-path="url(#42aec14452)"><path fill="#000000" d="M 29 53.042969 C 28.933594 53.042969 28.863281 53.015625 28.808594 52.964844 C 28.703125 52.855469 28.703125 52.683594 28.808594 52.578125 L 33 48.371094 C 33.105469 48.265625 33.277344 48.265625 33.382812 48.371094 C 33.488281 48.476562 33.488281 48.648438 33.382812 48.757812 L 29.191406 52.964844 C 29.140625 53.015625 29.070312 53.042969 29 53.042969 Z M 29 53.042969 " fill-opacity="1" fill-rule="nonzero"/></g><g clip-path="url(#02b6f62edc)"><path fill="#000000" d="M 28.453125 52.164062 C 28.136719 52.480469 28.136719 53 28.453125 53.320312 C 28.773438 53.640625 29.289062 53.640625 29.605469 53.320312 C 29.925781 53 29.925781 52.480469 29.605469 52.164062 C 29.289062 51.84375 28.773438 51.84375 28.453125 52.164062 Z M 28.453125 52.164062 " fill-opacity="1" fill-rule="nonzero"/></g><path fill="#000000" d="M 34.9375 28.914062 C 34.902344 28.914062 34.867188 28.902344 34.839844 28.875 C 34.789062 28.820312 34.789062 28.734375 34.839844 28.679688 L 39.183594 24.320312 C 39.238281 24.265625 39.324219 24.265625 39.375 24.320312 C 39.429688 24.375 39.429688 24.460938 39.375 24.511719 L 35.03125 28.875 C 35.003906 28.902344 34.972656 28.914062 34.9375 28.914062 Z M 34.9375 28.914062 " fill-opacity="1" fill-rule="nonzero"/><path fill="#000000" d="M 39.554688 24.722656 C 39.714844 24.5625 39.714844 24.300781 39.554688 24.140625 C 39.394531 23.984375 39.136719 23.980469 38.976562 24.140625 C 38.816406 24.300781 38.816406 24.5625 38.976562 24.722656 C 39.136719 24.878906 39.394531 24.882812 39.554688 24.722656 Z M 39.554688 24.722656 " fill-opacity="1" fill-rule="nonzero"/><path fill="#000000" d="M 35.460938 29.695312 C 35.425781 29.695312 35.390625 29.679688 35.363281 29.65625 C 35.3125 29.601562 35.3125 29.515625 35.363281 29.460938 L 38.550781 26.261719 C 38.605469 26.207031 38.691406 26.207031 38.742188 26.261719 C 38.796875 26.316406 38.796875 26.402344 38.742188 26.453125 L 35.554688 29.65625 C 35.53125 29.679688 35.496094 29.695312 35.460938 29.695312 Z M 35.460938 29.695312 " fill-opacity="1" fill-rule="nonzero"/><path fill="#000000" d="M 38.921875 26.660156 C 39.082031 26.5 39.082031 26.242188 38.921875 26.082031 C 38.761719 25.921875 38.503906 25.921875 38.34375 26.082031 C 38.1875 26.242188 38.183594 26.503906 38.34375 26.660156 C 38.503906 26.820312 38.761719 26.820312 38.921875 26.660156 Z M 38.921875 26.660156 " fill-opacity="1" fill-rule="nonzero"/><path fill="#000000" d="M 36.265625 30.582031 C 36.230469 30.582031 36.195312 30.570312 36.171875 30.542969 C 36.117188 30.488281 36.117188 30.402344 36.171875 30.351562 L 39.058594 27.449219 C 39.113281 27.398438 39.199219 27.398438 39.25 27.449219 C 39.304688 27.503906 39.304688 27.589844 39.25 27.644531 L 36.363281 30.542969 C 36.335938 30.570312 36.300781 30.582031 36.265625 30.582031 Z M 36.265625 30.582031 " fill-opacity="1" fill-rule="nonzero"/><path fill="#000000" d="M 39.429688 27.851562 C 39.589844 27.691406 39.589844 27.429688 39.429688 27.273438 C 39.269531 27.113281 39.011719 27.113281 38.851562 27.273438 C 38.691406 27.433594 38.691406 27.691406 38.851562 27.851562 C 39.011719 28.011719 39.269531 28.011719 39.429688 27.851562 Z M 39.429688 27.851562 " fill-opacity="1" fill-rule="nonzero"/><path fill="#000000" d="M 20.882812 35.425781 L 16.570312 35.425781 C 16.496094 35.425781 16.433594 35.367188 16.433594 35.289062 C 16.433594 35.214844 16.496094 35.15625 16.570312 35.15625 L 20.882812 35.15625 C 20.957031 35.15625 21.019531 35.214844 21.019531 35.289062 C 21.019531 35.367188 20.957031 35.425781 20.882812 35.425781 Z M 20.882812 35.425781 " fill-opacity="1" fill-rule="nonzero"/><path fill="#000000" d="M 20.863281 35.699219 C 21.089844 35.699219 21.269531 35.515625 21.269531 35.289062 C 21.269531 35.066406 21.089844 34.882812 20.863281 34.882812 C 20.636719 34.882812 20.453125 35.066406 20.453125 35.289062 C 20.453125 35.515625 20.636719 35.699219 20.863281 35.699219 Z M 20.863281 35.699219 " fill-opacity="1" fill-rule="nonzero"/><path fill="#000000" d="M 22.394531 36.429688 L 17.152344 36.429688 C 17.078125 36.429688 17.015625 36.367188 17.015625 36.292969 C 17.015625 36.21875 17.078125 36.15625 17.152344 36.15625 L 22.394531 36.15625 C 22.46875 36.15625 22.53125 36.21875 22.53125 36.292969 C 22.53125 36.367188 22.46875 36.429688 22.394531 36.429688 Z M 22.394531 36.429688 " fill-opacity="1" fill-rule="nonzero"/><path fill="#000000" d="M 22.375 36.703125 C 22.597656 36.703125 22.78125 36.519531 22.78125 36.292969 C 22.78125 36.066406 22.597656 35.882812 22.375 35.882812 C 22.148438 35.882812 21.964844 36.066406 21.964844 36.292969 C 21.964844 36.519531 22.148438 36.703125 22.375 36.703125 Z M 22.375 36.703125 " fill-opacity="1" fill-rule="nonzero"/><path fill="#000000" d="M 40.253906 47.945312 C 40.222656 47.945312 40.1875 47.933594 40.160156 47.90625 C 40.105469 47.851562 40.105469 47.765625 40.160156 47.710938 L 45.46875 42.378906 C 45.523438 42.328125 45.609375 42.328125 45.660156 42.378906 C 45.714844 42.433594 45.714844 42.519531 45.660156 42.574219 L 40.351562 47.90625 C 40.324219 47.933594 40.289062 47.945312 40.253906 47.945312 Z M 40.253906 47.945312 " fill-opacity="1" fill-rule="nonzero"/><path fill="#000000" d="M 45.839844 42.78125 C 46 42.621094 46 42.363281 45.839844 42.203125 C 45.679688 42.042969 45.421875 42.042969 45.261719 42.203125 C 45.101562 42.363281 45.101562 42.621094 45.261719 42.78125 C 45.421875 42.941406 45.679688 42.941406 45.839844 42.78125 Z M 45.839844 42.78125 " fill-opacity="1" fill-rule="nonzero"/><path fill="#000000" d="M 41.417969 48.863281 C 41.382812 48.863281 41.347656 48.851562 41.324219 48.824219 C 41.269531 48.769531 41.269531 48.683594 41.324219 48.628906 L 44.582031 45.355469 C 44.636719 45.304688 44.722656 45.304688 44.777344 45.355469 C 44.828125 45.410156 44.828125 45.496094 44.777344 45.550781 L 41.515625 48.824219 C 41.488281 48.851562 41.453125 48.863281 41.417969 48.863281 Z M 41.417969 48.863281 " fill-opacity="1" fill-rule="nonzero"/><path fill="#000000" d="M 44.953125 45.757812 C 45.113281 45.597656 45.113281 45.335938 44.953125 45.179688 C 44.792969 45.019531 44.535156 45.019531 44.375 45.179688 C 44.21875 45.339844 44.21875 45.597656 44.375 45.757812 C 44.535156 45.917969 44.792969 45.917969 44.953125 45.757812 Z M 44.953125 45.757812 " fill-opacity="1" fill-rule="nonzero"/><path fill="#000000" d="M 42.832031 50.28125 C 42.796875 50.28125 42.761719 50.269531 42.734375 50.242188 C 42.683594 50.1875 42.683594 50.101562 42.734375 50.046875 L 45.585938 47.1875 C 45.636719 47.132812 45.722656 47.132812 45.777344 47.1875 C 45.832031 47.242188 45.832031 47.328125 45.777344 47.378906 L 42.929688 50.242188 C 42.902344 50.269531 42.867188 50.28125 42.832031 50.28125 Z M 42.832031 50.28125 " fill-opacity="1" fill-rule="nonzero"/><path fill="#000000" d="M 45.957031 47.589844 C 46.113281 47.429688 46.113281 47.167969 45.957031 47.007812 C 45.796875 46.847656 45.539062 46.847656 45.378906 47.007812 C 45.21875 47.167969 45.21875 47.429688 45.378906 47.589844 C 45.539062 47.75 45.796875 47.75 45.957031 47.589844 Z M 45.957031 47.589844 " fill-opacity="1" fill-rule="nonzero"/><path fill="#000000" d="M 43.921875 51.761719 C 43.886719 51.761719 43.851562 51.75 43.828125 51.722656 C 43.773438 51.667969 43.773438 51.582031 43.828125 51.527344 L 47.609375 47.730469 C 47.664062 47.675781 47.746094 47.675781 47.800781 47.730469 C 47.855469 47.785156 47.855469 47.871094 47.800781 47.921875 L 44.019531 51.722656 C 43.992188 51.75 43.957031 51.761719 43.921875 51.761719 Z M 43.921875 51.761719 " fill-opacity="1" fill-rule="nonzero"/><g clip-path="url(#656abba07e)"><path fill="#000000" d="M 47.980469 48.132812 C 48.140625 47.972656 48.140625 47.710938 47.980469 47.550781 C 47.820312 47.390625 47.5625 47.390625 47.402344 47.550781 C 47.242188 47.710938 47.242188 47.972656 47.402344 48.132812 C 47.5625 48.292969 47.820312 48.292969 47.980469 48.132812 Z M 47.980469 48.132812 " fill-opacity="1" fill-rule="nonzero"/></g><g clip-path="url(#c09b547c0c)"><path fill="#000000" d="M 32.589844 53.203125 L 28.453125 53.203125 C 28.378906 53.203125 28.316406 53.140625 28.316406 53.066406 C 28.316406 52.992188 28.378906 52.929688 28.453125 52.929688 L 32.589844 52.929688 C 32.664062 52.929688 32.726562 52.992188 32.726562 53.066406 C 32.726562 53.140625 32.664062 53.203125 32.589844 53.203125 Z M 32.589844 53.203125 " fill-opacity="1" fill-rule="nonzero"/></g><g clip-path="url(#f7d160d721)"><path fill="#000000" d="M 32.570312 53.476562 C 32.792969 53.476562 32.976562 53.292969 32.976562 53.066406 C 32.976562 52.839844 32.792969 52.65625 32.570312 52.65625 C 32.34375 52.65625 32.160156 52.839844 32.160156 53.066406 C 32.160156 53.292969 32.34375 53.476562 32.570312 53.476562 Z M 32.570312 53.476562 " fill-opacity="1" fill-rule="nonzero"/></g><path fill="#000000" d="M 34.054688 52.199219 L 29.699219 52.199219 C 29.625 52.199219 29.566406 52.140625 29.566406 52.066406 C 29.566406 51.988281 29.625 51.929688 29.699219 51.929688 L 34.054688 51.929688 C 34.128906 51.929688 34.1875 51.988281 34.1875 52.066406 C 34.1875 52.140625 34.128906 52.199219 34.054688 52.199219 Z M 34.054688 52.199219 " fill-opacity="1" fill-rule="nonzero"/><path fill="#000000" d="M 34.03125 52.472656 C 34.257812 52.472656 34.441406 52.289062 34.441406 52.066406 C 34.441406 51.839844 34.257812 51.65625 34.03125 51.65625 C 33.808594 51.65625 33.625 51.839844 33.625 52.066406 C 33.625 52.289062 33.808594 52.472656 34.03125 52.472656 Z M 34.03125 52.472656 " fill-opacity="1" fill-rule="nonzero"/><path fill="#000000" d="M 35.480469 51.199219 L 30.863281 51.199219 C 30.789062 51.199219 30.730469 51.140625 30.730469 51.0625 C 30.730469 50.988281 30.789062 50.925781 30.863281 50.925781 L 35.480469 50.925781 C 35.554688 50.925781 35.617188 50.988281 35.617188 51.0625 C 35.617188 51.140625 35.554688 51.199219 35.480469 51.199219 Z M 35.480469 51.199219 " fill-opacity="1" fill-rule="nonzero"/><path fill="#000000" d="M 35.460938 51.472656 C 35.683594 51.472656 35.867188 51.289062 35.867188 51.0625 C 35.867188 50.835938 35.683594 50.652344 35.460938 50.652344 C 35.234375 50.652344 35.050781 50.835938 35.050781 51.0625 C 35.050781 51.289062 35.234375 51.472656 35.460938 51.472656 Z M 35.460938 51.472656 " fill-opacity="1" fill-rule="nonzero"/><path fill="#000000" d="M 35.761719 50.113281 L 31.777344 50.113281 C 31.703125 50.113281 31.644531 50.054688 31.644531 49.976562 C 31.644531 49.902344 31.703125 49.84375 31.777344 49.84375 L 35.761719 49.84375 C 35.839844 49.84375 35.898438 49.902344 35.898438 49.976562 C 35.898438 50.054688 35.839844 50.113281 35.761719 50.113281 Z M 35.761719 50.113281 " fill-opacity="1" fill-rule="nonzero"/><path fill="#000000" d="M 35.742188 50.386719 C 35.96875 50.386719 36.152344 50.203125 36.152344 49.976562 C 36.152344 49.753906 35.96875 49.570312 35.742188 49.570312 C 35.519531 49.570312 35.335938 49.753906 35.335938 49.976562 C 35.335938 50.203125 35.519531 50.386719 35.742188 50.386719 Z M 35.742188 50.386719 " fill-opacity="1" fill-rule="nonzero"/><g fill="#7ed957" fill-opacity="1"><g transform="translate(18.157363, 81.814896)"><g><path d="M 4.78125 0.1875 C 4.039062 0.1875 3.367188 0.0546875 2.765625 -0.203125 C 2.160156 -0.460938 1.675781 -0.863281 1.3125 -1.40625 C 0.945312 -1.957031 0.753906 -2.644531 0.734375 -3.46875 L 2.765625 -3.46875 C 2.773438 -2.925781 2.953125 -2.46875 3.296875 -2.09375 C 3.648438 -1.726562 4.144531 -1.546875 4.78125 -1.546875 C 5.382812 -1.546875 5.84375 -1.710938 6.15625 -2.046875 C 6.476562 -2.378906 6.640625 -2.796875 6.640625 -3.296875 C 6.640625 -3.890625 6.425781 -4.335938 6 -4.640625 C 5.582031 -4.953125 5.039062 -5.109375 4.375 -5.109375 L 3.546875 -5.109375 L 3.546875 -6.796875 L 4.390625 -6.796875 C 4.941406 -6.796875 5.398438 -6.921875 5.765625 -7.171875 C 6.128906 -7.429688 6.3125 -7.816406 6.3125 -8.328125 C 6.3125 -8.742188 6.171875 -9.078125 5.890625 -9.328125 C 5.617188 -9.578125 5.242188 -9.703125 4.765625 -9.703125 C 4.234375 -9.703125 3.820312 -9.546875 3.53125 -9.234375 C 3.238281 -8.921875 3.078125 -8.539062 3.046875 -8.09375 L 1.03125 -8.09375 C 1.070312 -9.132812 1.429688 -9.953125 2.109375 -10.546875 C 2.796875 -11.148438 3.679688 -11.453125 4.765625 -11.453125 C 5.535156 -11.453125 6.1875 -11.316406 6.71875 -11.046875 C 7.25 -10.773438 7.648438 -10.410156 7.921875 -9.953125 C 8.203125 -9.503906 8.34375 -9.007812 8.34375 -8.46875 C 8.34375 -7.832031 8.164062 -7.296875 7.8125 -6.859375 C 7.46875 -6.429688 7.035156 -6.140625 6.515625 -5.984375 C 7.148438 -5.859375 7.664062 -5.550781 8.0625 -5.0625 C 8.457031 -4.570312 8.65625 -3.957031 8.65625 -3.21875 C 8.65625 -2.59375 8.503906 -2.019531 8.203125 -1.5 C 7.898438 -0.988281 7.460938 -0.578125 6.890625 -0.265625 C 6.316406 0.0351562 5.613281 0.1875 4.78125 0.1875 Z M 4.78125 0.1875 "/></g></g></g><g fill="#7ed957" fill-opacity="1"><g transform="translate(27.75204, 81.814896)"><g><path d="M 1.09375 0 L 1.09375 -11.265625 L 3.546875 -11.265625 L 7.125 -4.125 L 10.671875 -11.265625 L 13.109375 -11.265625 L 13.109375 0 L 11.0625 0 L 11.0625 -7.765625 L 7.921875 -1.609375 L 6.296875 -1.609375 L 3.15625 -7.765625 L 3.15625 0 Z M 1.09375 0 "/></g></g></g><g fill="#7ed957" fill-opacity="1"><g transform="translate(41.966974, 81.814896)"><g><path d="M 0.875 -3.796875 L 0.875 -5.515625 L 7.609375 -5.515625 L 7.609375 -3.796875 Z M 0.875 -3.796875 "/></g></g></g><g fill="#000000" fill-opacity="1"><g transform="translate(50.45938, 81.814896)"><g><path d="M 4.9375 0.1875 C 4.113281 0.1875 3.382812 0.046875 2.75 -0.234375 C 2.113281 -0.515625 1.613281 -0.921875 1.25 -1.453125 C 0.882812 -1.984375 0.695312 -2.628906 0.6875 -3.390625 L 2.859375 -3.390625 C 2.878906 -2.867188 3.066406 -2.425781 3.421875 -2.0625 C 3.785156 -1.707031 4.285156 -1.53125 4.921875 -1.53125 C 5.472656 -1.53125 5.910156 -1.660156 6.234375 -1.921875 C 6.554688 -2.179688 6.71875 -2.535156 6.71875 -2.984375 C 6.71875 -3.441406 6.570312 -3.796875 6.28125 -4.046875 C 6 -4.304688 5.617188 -4.515625 5.140625 -4.671875 C 4.671875 -4.835938 4.171875 -5.015625 3.640625 -5.203125 C 2.765625 -5.503906 2.097656 -5.890625 1.640625 -6.359375 C 1.191406 -6.828125 0.96875 -7.453125 0.96875 -8.234375 C 0.957031 -8.898438 1.113281 -9.472656 1.4375 -9.953125 C 1.769531 -10.429688 2.21875 -10.800781 2.78125 -11.0625 C 3.351562 -11.320312 4.007812 -11.453125 4.75 -11.453125 C 5.5 -11.453125 6.160156 -11.316406 6.734375 -11.046875 C 7.304688 -10.785156 7.753906 -10.410156 8.078125 -9.921875 C 8.410156 -9.441406 8.585938 -8.867188 8.609375 -8.203125 L 6.40625 -8.203125 C 6.394531 -8.597656 6.238281 -8.945312 5.9375 -9.25 C 5.644531 -9.5625 5.238281 -9.71875 4.71875 -9.71875 C 4.269531 -9.726562 3.890625 -9.617188 3.578125 -9.390625 C 3.273438 -9.160156 3.125 -8.828125 3.125 -8.390625 C 3.125 -8.015625 3.238281 -7.710938 3.46875 -7.484375 C 3.707031 -7.265625 4.03125 -7.082031 4.4375 -6.9375 C 4.84375 -6.789062 5.3125 -6.628906 5.84375 -6.453125 C 6.394531 -6.253906 6.898438 -6.023438 7.359375 -5.765625 C 7.828125 -5.515625 8.203125 -5.175781 8.484375 -4.75 C 8.765625 -4.332031 8.90625 -3.789062 8.90625 -3.125 C 8.90625 -2.53125 8.753906 -1.976562 8.453125 -1.46875 C 8.148438 -0.96875 7.703125 -0.566406 7.109375 -0.265625 C 6.523438 0.0351562 5.800781 0.1875 4.9375 0.1875 Z M 4.9375 0.1875 "/></g></g></g><g fill="#000000" fill-opacity="1"><g transform="translate(60.070155, 81.814896)"><g><path d="M 1.09375 0 L 1.09375 -11.265625 L 8.453125 -11.265625 L 8.453125 -9.609375 L 3.15625 -9.609375 L 3.15625 -6.515625 L 7.96875 -6.515625 L 7.96875 -4.90625 L 3.15625 -4.90625 L 3.15625 -1.65625 L 8.453125 -1.65625 L 8.453125 0 Z M 1.09375 0 "/></g></g></g><g fill="#000000" fill-opacity="1"><g transform="translate(69.375057, 81.814896)"><g><path d="M 6.203125 0.1875 C 5.054688 0.1875 4.078125 -0.0507812 3.265625 -0.53125 C 2.453125 -1.019531 1.820312 -1.703125 1.375 -2.578125 C 0.9375 -3.453125 0.71875 -4.460938 0.71875 -5.609375 C 0.71875 -6.765625 0.9375 -7.78125 1.375 -8.65625 C 1.820312 -9.539062 2.453125 -10.226562 3.265625 -10.71875 C 4.078125 -11.207031 5.054688 -11.453125 6.203125 -11.453125 C 7.546875 -11.453125 8.648438 -11.117188 9.515625 -10.453125 C 10.378906 -9.785156 10.921875 -8.84375 11.140625 -7.625 L 8.875 -7.625 C 8.726562 -8.238281 8.425781 -8.71875 7.96875 -9.0625 C 7.519531 -9.414062 6.914062 -9.59375 6.15625 -9.59375 C 5.125 -9.59375 4.3125 -9.238281 3.71875 -8.53125 C 3.125 -7.820312 2.828125 -6.847656 2.828125 -5.609375 C 2.828125 -4.378906 3.125 -3.410156 3.71875 -2.703125 C 4.3125 -2.003906 5.125 -1.65625 6.15625 -1.65625 C 6.914062 -1.65625 7.519531 -1.816406 7.96875 -2.140625 C 8.425781 -2.472656 8.726562 -2.929688 8.875 -3.515625 L 11.140625 -3.515625 C 10.921875 -2.347656 10.378906 -1.4375 9.515625 -0.78125 C 8.648438 -0.132812 7.546875 0.1875 6.203125 0.1875 Z M 6.203125 0.1875 "/></g></g></g><g fill="#000000" fill-opacity="1"><g transform="translate(81.239613, 81.814896)"><g><path d="M 5.4375 0.1875 C 4.613281 0.1875 3.867188 0.0234375 3.203125 -0.296875 C 2.535156 -0.617188 2.003906 -1.113281 1.609375 -1.78125 C 1.222656 -2.445312 1.03125 -3.289062 1.03125 -4.3125 L 1.03125 -11.265625 L 3.09375 -11.265625 L 3.09375 -4.296875 C 3.09375 -3.421875 3.300781 -2.765625 3.71875 -2.328125 C 4.144531 -1.898438 4.734375 -1.6875 5.484375 -1.6875 C 6.222656 -1.6875 6.804688 -1.898438 7.234375 -2.328125 C 7.671875 -2.765625 7.890625 -3.421875 7.890625 -4.296875 L 7.890625 -11.265625 L 9.953125 -11.265625 L 9.953125 -4.3125 C 9.953125 -3.289062 9.742188 -2.445312 9.328125 -1.78125 C 8.921875 -1.113281 8.375 -0.617188 7.6875 -0.296875 C 7.007812 0.0234375 6.257812 0.1875 5.4375 0.1875 Z M 5.4375 0.1875 "/></g></g></g><g fill="#000000" fill-opacity="1"><g transform="translate(92.20266, 81.814896)"><g><path d="M 1.09375 0 L 1.09375 -11.265625 L 5.234375 -11.265625 C 6.128906 -11.265625 6.867188 -11.109375 7.453125 -10.796875 C 8.046875 -10.492188 8.484375 -10.082031 8.765625 -9.5625 C 9.054688 -9.039062 9.203125 -8.46875 9.203125 -7.84375 C 9.203125 -7.15625 9.019531 -6.523438 8.65625 -5.953125 C 8.300781 -5.390625 7.742188 -4.976562 6.984375 -4.71875 L 9.3125 0 L 6.953125 0 L 4.859375 -4.4375 L 3.15625 -4.4375 L 3.15625 0 Z M 3.15625 -5.953125 L 5.109375 -5.953125 C 5.785156 -5.953125 6.285156 -6.117188 6.609375 -6.453125 C 6.929688 -6.785156 7.09375 -7.222656 7.09375 -7.765625 C 7.09375 -8.304688 6.929688 -8.738281 6.609375 -9.0625 C 6.296875 -9.382812 5.785156 -9.546875 5.078125 -9.546875 L 3.15625 -9.546875 Z M 3.15625 -5.953125 "/></g></g></g><g fill="#000000" fill-opacity="1"><g transform="translate(102.231989, 81.814896)"><g><path d="M 1.09375 0 L 1.09375 -11.265625 L 8.453125 -11.265625 L 8.453125 -9.609375 L 3.15625 -9.609375 L 3.15625 -6.515625 L 7.96875 -6.515625 L 7.96875 -4.90625 L 3.15625 -4.90625 L 3.15625 -1.65625 L 8.453125 -1.65625 L 8.453125 0 Z M 1.09375 0 "/></g></g></g><g clip-path="url(#ec868430d8)"><path fill="#000000" d="M 91.234375 38.109375 C 91.234375 38.039062 91.261719 37.96875 91.3125 37.917969 L 115.382812 13.945312 C 115.488281 13.839844 115.660156 13.839844 115.765625 13.945312 C 115.875 14.050781 115.875 14.226562 115.765625 14.332031 L 91.699219 38.300781 C 91.59375 38.40625 91.417969 38.40625 91.3125 38.300781 C 91.261719 38.246094 91.234375 38.175781 91.234375 38.109375 Z M 91.234375 38.109375 " fill-opacity="1" fill-rule="nonzero"/></g><path fill="#000000" d="M 90.957031 37.503906 C 90.636719 37.820312 90.636719 38.339844 90.957031 38.65625 C 91.277344 38.976562 91.792969 38.976562 92.113281 38.65625 C 92.433594 38.339844 92.433594 37.820312 92.113281 37.503906 C 91.792969 37.183594 91.277344 37.183594 90.957031 37.503906 Z M 90.957031 37.503906 " fill-opacity="1" fill-rule="nonzero"/><path fill="#000000" d="M 108.660156 23.414062 C 108.660156 23.34375 108.683594 23.277344 108.738281 23.222656 L 116.632812 15.359375 C 116.738281 15.253906 116.914062 15.253906 117.019531 15.359375 C 117.125 15.464844 117.125 15.636719 117.019531 15.742188 L 109.125 23.605469 C 109.015625 23.710938 108.84375 23.710938 108.738281 23.605469 C 108.683594 23.554688 108.660156 23.484375 108.660156 23.414062 Z M 108.660156 23.414062 " fill-opacity="1" fill-rule="nonzero"/><path fill="#000000" d="M 108.378906 22.808594 C 108.0625 23.125 108.0625 23.644531 108.378906 23.960938 C 108.699219 24.28125 109.21875 24.28125 109.539062 23.960938 C 109.859375 23.644531 109.859375 23.125 109.539062 22.808594 C 109.21875 22.488281 108.699219 22.488281 108.378906 22.808594 Z M 108.378906 22.808594 " fill-opacity="1" fill-rule="nonzero"/><path fill="#000000" d="M 104.09375 32.28125 C 104.09375 32.210938 104.121094 32.140625 104.175781 32.089844 L 118.96875 17.355469 C 119.078125 17.25 119.25 17.25 119.355469 17.355469 C 119.460938 17.460938 119.460938 17.632812 119.355469 17.738281 L 104.5625 32.472656 C 104.453125 32.578125 104.28125 32.578125 104.175781 32.472656 C 104.121094 32.417969 104.097656 32.347656 104.097656 32.28125 Z M 104.09375 32.28125 " fill-opacity="1" fill-rule="nonzero"/><path fill="#000000" d="M 103.816406 31.675781 C 103.496094 31.992188 103.496094 32.511719 103.816406 32.828125 C 104.136719 33.148438 104.65625 33.148438 104.976562 32.828125 C 105.296875 32.511719 105.296875 31.992188 104.976562 31.675781 C 104.65625 31.355469 104.136719 31.355469 103.816406 31.675781 Z M 103.816406 31.675781 " fill-opacity="1" fill-rule="nonzero"/><g clip-path="url(#7df16851b2)"><path fill="#000000" d="M 96.289062 43.546875 C 96.289062 43.476562 96.316406 43.40625 96.367188 43.351562 L 120.472656 19.347656 C 120.578125 19.242188 120.75 19.242188 120.859375 19.347656 C 120.964844 19.453125 120.964844 19.625 120.859375 19.730469 L 96.753906 43.738281 C 96.648438 43.84375 96.476562 43.84375 96.367188 43.738281 C 96.316406 43.683594 96.289062 43.613281 96.289062 43.546875 Z M 96.289062 43.546875 " fill-opacity="1" fill-rule="nonzero"/></g><path fill="#000000" d="M 96.011719 42.941406 C 95.691406 43.257812 95.691406 43.773438 96.011719 44.09375 C 96.332031 44.410156 96.851562 44.410156 97.167969 44.09375 C 97.488281 43.773438 97.488281 43.257812 97.167969 42.941406 C 96.851562 42.621094 96.332031 42.621094 96.011719 42.941406 Z M 96.011719 42.941406 " fill-opacity="1" fill-rule="nonzero"/><path fill="#000000" d="M 86.835938 38.515625 C 86.835938 38.363281 86.957031 38.242188 87.109375 38.242188 L 91.175781 38.242188 C 91.324219 38.242188 91.445312 38.363281 91.445312 38.515625 C 91.445312 38.664062 91.324219 38.785156 91.175781 38.785156 L 87.109375 38.785156 C 86.957031 38.785156 86.835938 38.664062 86.835938 38.515625 Z M 86.835938 38.515625 " fill-opacity="1" fill-rule="nonzero"/><path fill="#000000" d="M 87.148438 37.699219 C 86.699219 37.699219 86.332031 38.0625 86.332031 38.515625 C 86.332031 38.964844 86.699219 39.332031 87.148438 39.332031 C 87.601562 39.332031 87.96875 38.964844 87.96875 38.515625 C 87.96875 38.0625 87.601562 37.699219 87.148438 37.699219 Z M 87.148438 37.699219 " fill-opacity="1" fill-rule="nonzero"/><path fill="#000000" d="M 89.523438 43.972656 C 89.523438 43.820312 89.644531 43.699219 89.796875 43.699219 L 96.179688 43.699219 C 96.332031 43.699219 96.453125 43.820312 96.453125 43.972656 C 96.453125 44.121094 96.332031 44.242188 96.179688 44.242188 L 89.796875 44.242188 C 89.644531 44.242188 89.523438 44.121094 89.523438 43.972656 Z M 89.523438 43.972656 " fill-opacity="1" fill-rule="nonzero"/><path fill="#000000" d="M 89.835938 43.15625 C 89.386719 43.15625 89.019531 43.519531 89.019531 43.972656 C 89.019531 44.421875 89.382812 44.789062 89.835938 44.789062 C 90.289062 44.789062 90.65625 44.421875 90.65625 43.972656 C 90.65625 43.519531 90.289062 43.15625 89.835938 43.15625 Z M 89.835938 43.15625 " fill-opacity="1" fill-rule="nonzero"/><path fill="#000000" d="M 103.617188 32.5625 C 103.617188 32.492188 103.644531 32.425781 103.699219 32.371094 C 103.804688 32.265625 103.976562 32.265625 104.082031 32.371094 L 108.6875 36.953125 C 108.792969 37.0625 108.792969 37.234375 108.6875 37.339844 C 108.578125 37.445312 108.40625 37.445312 108.300781 37.339844 L 103.699219 32.753906 C 103.644531 32.703125 103.617188 32.632812 103.617188 32.5625 Z M 103.617188 32.5625 " fill-opacity="1" fill-rule="nonzero"/><path fill="#000000" d="M 107.886719 37.695312 C 108.207031 38.011719 108.722656 38.011719 109.042969 37.695312 C 109.363281 37.375 109.363281 36.859375 109.042969 36.542969 C 108.722656 36.222656 108.207031 36.222656 107.886719 36.542969 C 107.566406 36.859375 107.566406 37.375 107.886719 37.695312 Z M 107.886719 37.695312 " fill-opacity="1" fill-rule="nonzero"/><path fill="#000000" d="M 103.25 18.6875 C 103.25 18.617188 103.277344 18.546875 103.332031 18.496094 C 103.4375 18.386719 103.609375 18.386719 103.714844 18.496094 L 108.832031 23.589844 C 108.941406 23.695312 108.941406 23.867188 108.832031 23.972656 C 108.726562 24.078125 108.554688 24.078125 108.449219 23.972656 L 103.332031 18.878906 C 103.277344 18.824219 103.25 18.753906 103.25 18.6875 Z M 103.25 18.6875 " fill-opacity="1" fill-rule="nonzero"/><path fill="#000000" d="M 104.132812 18.136719 C 103.8125 17.820312 103.292969 17.820312 102.972656 18.136719 C 102.652344 18.457031 102.652344 18.972656 102.972656 19.292969 C 103.292969 19.609375 103.8125 19.609375 104.132812 19.292969 C 104.453125 18.972656 104.453125 18.457031 104.132812 18.136719 Z M 104.132812 18.136719 " fill-opacity="1" fill-rule="nonzero"/><path fill="#000000" d="M 98.925781 22.214844 C 98.925781 22.144531 98.953125 22.078125 99.007812 22.023438 L 103.054688 17.992188 C 103.160156 17.886719 103.332031 17.886719 103.4375 17.992188 C 103.542969 18.097656 103.542969 18.269531 103.4375 18.378906 L 99.390625 22.40625 C 99.285156 22.511719 99.113281 22.511719 99.007812 22.40625 C 98.953125 22.355469 98.925781 22.285156 98.925781 22.214844 Z M 98.925781 22.214844 " fill-opacity="1" fill-rule="nonzero"/><path fill="#000000" d="M 98.648438 21.609375 C 98.328125 21.929688 98.328125 22.445312 98.648438 22.761719 C 98.96875 23.082031 99.488281 23.082031 99.808594 22.761719 C 100.128906 22.445312 100.128906 21.929688 99.808594 21.609375 C 99.488281 21.289062 98.96875 21.289062 98.648438 21.609375 Z M 98.648438 21.609375 " fill-opacity="1" fill-rule="nonzero"/><path fill="#000000" d="M 104.796875 41.226562 C 104.796875 41.15625 104.824219 41.085938 104.878906 41.03125 L 108.625 37.300781 C 108.730469 37.195312 108.902344 37.195312 109.011719 37.300781 C 109.117188 37.40625 109.117188 37.578125 109.011719 37.683594 L 105.261719 41.417969 C 105.15625 41.523438 104.984375 41.523438 104.878906 41.417969 C 104.824219 41.363281 104.796875 41.292969 104.796875 41.222656 Z M 104.796875 41.226562 " fill-opacity="1" fill-rule="nonzero"/><path fill="#000000" d="M 104.519531 40.617188 C 104.199219 40.9375 104.199219 41.453125 104.519531 41.773438 C 104.839844 42.089844 105.359375 42.089844 105.679688 41.773438 C 106 41.453125 106 40.9375 105.679688 40.617188 C 105.359375 40.300781 104.839844 40.300781 104.519531 40.617188 Z M 104.519531 40.617188 " fill-opacity="1" fill-rule="nonzero"/><path fill="#000000" d="M 83.386719 49.386719 C 83.386719 49.316406 83.414062 49.246094 83.464844 49.191406 L 89.007812 43.675781 C 89.113281 43.566406 89.285156 43.566406 89.390625 43.675781 C 89.5 43.78125 89.5 43.953125 89.390625 44.058594 L 83.851562 49.578125 C 83.746094 49.683594 83.570312 49.683594 83.464844 49.578125 C 83.410156 49.523438 83.386719 49.453125 83.386719 49.382812 Z M 83.386719 49.386719 " fill-opacity="1" fill-rule="nonzero"/><path fill="#000000" d="M 83.109375 48.777344 C 82.789062 49.097656 82.789062 49.613281 83.109375 49.933594 C 83.429688 50.25 83.945312 50.25 84.265625 49.933594 C 84.585938 49.613281 84.585938 49.097656 84.265625 48.777344 C 83.945312 48.460938 83.429688 48.460938 83.109375 48.777344 Z M 83.109375 48.777344 " fill-opacity="1" fill-rule="nonzero"/><g clip-path="url(#c2f52727f2)"><path fill="#000000" d="M 81.964844 34.300781 C 81.964844 34.230469 81.992188 34.160156 82.046875 34.105469 C 82.152344 34 82.324219 34 82.429688 34.105469 L 86.636719 38.296875 C 86.746094 38.402344 86.746094 38.574219 86.636719 38.679688 C 86.53125 38.785156 86.359375 38.785156 86.253906 38.679688 L 82.046875 34.492188 C 81.992188 34.4375 81.964844 34.367188 81.964844 34.300781 Z M 81.964844 34.300781 " fill-opacity="1" fill-rule="nonzero"/></g><g clip-path="url(#82f37b2b6e)"><path fill="#000000" d="M 82.847656 33.75 C 82.527344 33.433594 82.007812 33.433594 81.6875 33.75 C 81.367188 34.070312 81.367188 34.585938 81.6875 34.90625 C 82.007812 35.222656 82.527344 35.222656 82.847656 34.90625 C 83.167969 34.585938 83.167969 34.070312 82.847656 33.75 Z M 82.847656 33.75 " fill-opacity="1" fill-rule="nonzero"/></g><path fill="#000000" d="M 106.09375 40.234375 C 106.09375 40.199219 106.109375 40.164062 106.136719 40.136719 C 106.1875 40.085938 106.273438 40.085938 106.328125 40.136719 L 110.6875 44.480469 C 110.742188 44.535156 110.742188 44.621094 110.6875 44.675781 C 110.636719 44.726562 110.550781 44.726562 110.496094 44.675781 L 106.136719 40.332031 C 106.109375 40.304688 106.09375 40.269531 106.09375 40.234375 Z M 106.09375 40.234375 " fill-opacity="1" fill-rule="nonzero"/><path fill="#000000" d="M 110.289062 44.851562 C 110.449219 45.011719 110.707031 45.011719 110.867188 44.851562 C 111.027344 44.691406 111.027344 44.433594 110.867188 44.273438 C 110.707031 44.117188 110.449219 44.117188 110.289062 44.273438 C 110.128906 44.433594 110.128906 44.691406 110.289062 44.851562 Z M 110.289062 44.851562 " fill-opacity="1" fill-rule="nonzero"/><path fill="#000000" d="M 105.316406 40.757812 C 105.316406 40.722656 105.328125 40.6875 105.355469 40.664062 C 105.410156 40.609375 105.496094 40.609375 105.546875 40.664062 L 108.75 43.851562 C 108.800781 43.902344 108.800781 43.988281 108.75 44.042969 C 108.695312 44.09375 108.609375 44.09375 108.554688 44.042969 L 105.355469 40.855469 C 105.328125 40.828125 105.316406 40.792969 105.316406 40.757812 Z M 105.316406 40.757812 " fill-opacity="1" fill-rule="nonzero"/><path fill="#000000" d="M 108.347656 44.21875 C 108.507812 44.378906 108.765625 44.378906 108.925781 44.21875 C 109.085938 44.058594 109.085938 43.800781 108.925781 43.644531 C 108.765625 43.484375 108.507812 43.484375 108.347656 43.644531 C 108.1875 43.800781 108.1875 44.0625 108.347656 44.21875 Z M 108.347656 44.21875 " fill-opacity="1" fill-rule="nonzero"/><path fill="#000000" d="M 104.425781 41.566406 C 104.425781 41.53125 104.4375 41.496094 104.464844 41.46875 C 104.519531 41.414062 104.605469 41.414062 104.660156 41.46875 L 107.558594 44.355469 C 107.613281 44.410156 107.613281 44.496094 107.558594 44.550781 C 107.503906 44.601562 107.417969 44.601562 107.367188 44.550781 L 104.464844 41.660156 C 104.4375 41.632812 104.425781 41.597656 104.425781 41.566406 Z M 104.425781 41.566406 " fill-opacity="1" fill-rule="nonzero"/><path fill="#000000" d="M 107.160156 44.726562 C 107.320312 44.886719 107.578125 44.886719 107.738281 44.726562 C 107.898438 44.566406 107.898438 44.308594 107.738281 44.152344 C 107.578125 43.992188 107.316406 43.992188 107.160156 44.152344 C 107 44.308594 107 44.566406 107.160156 44.726562 Z M 107.160156 44.726562 " fill-opacity="1" fill-rule="nonzero"/><path fill="#000000" d="M 99.582031 26.183594 L 99.582031 21.867188 C 99.582031 21.792969 99.644531 21.734375 99.71875 21.734375 C 99.792969 21.734375 99.855469 21.792969 99.855469 21.867188 L 99.855469 26.183594 C 99.855469 26.257812 99.792969 26.316406 99.71875 26.316406 C 99.644531 26.316406 99.582031 26.257812 99.582031 26.183594 Z M 99.582031 26.183594 " fill-opacity="1" fill-rule="nonzero"/><path fill="#000000" d="M 99.308594 26.160156 C 99.308594 26.386719 99.492188 26.570312 99.71875 26.570312 C 99.945312 26.570312 100.128906 26.386719 100.128906 26.160156 C 100.128906 25.9375 99.945312 25.753906 99.71875 25.753906 C 99.492188 25.753906 99.308594 25.9375 99.308594 26.160156 Z M 99.308594 26.160156 " fill-opacity="1" fill-rule="nonzero"/><path fill="#000000" d="M 98.582031 27.691406 L 98.582031 22.449219 C 98.582031 22.375 98.640625 22.3125 98.71875 22.3125 C 98.792969 22.3125 98.851562 22.375 98.851562 22.449219 L 98.851562 27.691406 C 98.851562 27.765625 98.792969 27.828125 98.71875 27.828125 C 98.640625 27.828125 98.582031 27.765625 98.582031 27.691406 Z M 98.582031 27.691406 " fill-opacity="1" fill-rule="nonzero"/><path fill="#000000" d="M 98.308594 27.671875 C 98.308594 27.898438 98.492188 28.078125 98.71875 28.078125 C 98.941406 28.078125 99.125 27.898438 99.125 27.671875 C 99.125 27.445312 98.941406 27.261719 98.71875 27.261719 C 98.492188 27.261719 98.308594 27.445312 98.308594 27.671875 Z M 98.308594 27.671875 " fill-opacity="1" fill-rule="nonzero"/><path fill="#000000" d="M 87.066406 45.554688 C 87.066406 45.519531 87.078125 45.484375 87.105469 45.457031 C 87.15625 45.40625 87.242188 45.40625 87.296875 45.457031 L 92.628906 50.765625 C 92.683594 50.820312 92.683594 50.90625 92.628906 50.960938 C 92.574219 51.011719 92.488281 51.011719 92.4375 50.960938 L 87.105469 45.648438 C 87.078125 45.625 87.066406 45.589844 87.066406 45.554688 Z M 87.066406 45.554688 " fill-opacity="1" fill-rule="nonzero"/><path fill="#000000" d="M 92.226562 51.136719 C 92.386719 51.296875 92.648438 51.296875 92.808594 51.136719 C 92.96875 50.976562 92.96875 50.71875 92.808594 50.5625 C 92.648438 50.402344 92.386719 50.402344 92.226562 50.5625 C 92.066406 50.71875 92.066406 50.980469 92.226562 51.136719 Z M 92.226562 51.136719 " fill-opacity="1" fill-rule="nonzero"/><path fill="#000000" d="M 86.148438 46.71875 C 86.148438 46.683594 86.160156 46.648438 86.1875 46.621094 C 86.238281 46.566406 86.324219 46.566406 86.378906 46.621094 L 89.652344 49.882812 C 89.707031 49.933594 89.707031 50.019531 89.652344 50.074219 C 89.601562 50.125 89.515625 50.125 89.460938 50.074219 L 86.1875 46.8125 C 86.160156 46.785156 86.148438 46.75 86.148438 46.71875 Z M 86.148438 46.71875 " fill-opacity="1" fill-rule="nonzero"/><path fill="#000000" d="M 89.253906 50.25 C 89.414062 50.410156 89.671875 50.410156 89.832031 50.25 C 89.992188 50.09375 89.992188 49.832031 89.832031 49.675781 C 89.671875 49.515625 89.410156 49.515625 89.253906 49.675781 C 89.09375 49.835938 89.09375 50.09375 89.253906 50.25 Z M 89.253906 50.25 " fill-opacity="1" fill-rule="nonzero"/><path fill="#000000" d="M 84.726562 48.128906 C 84.726562 48.09375 84.742188 48.0625 84.769531 48.035156 C 84.820312 47.980469 84.90625 47.980469 84.960938 48.035156 L 87.820312 50.882812 C 87.875 50.9375 87.875 51.023438 87.820312 51.074219 C 87.769531 51.128906 87.683594 51.128906 87.628906 51.074219 L 84.769531 48.226562 C 84.742188 48.199219 84.726562 48.164062 84.726562 48.128906 Z M 84.726562 48.128906 " fill-opacity="1" fill-rule="nonzero"/><path fill="#000000" d="M 87.421875 51.253906 C 87.582031 51.414062 87.839844 51.414062 88 51.253906 C 88.160156 51.09375 88.160156 50.835938 88 50.675781 C 87.839844 50.515625 87.582031 50.515625 87.421875 50.675781 C 87.261719 50.835938 87.261719 51.09375 87.421875 51.253906 Z M 87.421875 51.253906 " fill-opacity="1" fill-rule="nonzero"/><g clip-path="url(#9b14b80912)"><path fill="#000000" d="M 83.25 49.222656 C 83.25 49.1875 83.261719 49.152344 83.289062 49.125 C 83.339844 49.070312 83.425781 49.070312 83.480469 49.125 L 87.277344 52.90625 C 87.332031 52.960938 87.332031 53.046875 87.277344 53.097656 C 87.226562 53.152344 87.140625 53.152344 87.085938 53.097656 L 83.289062 49.316406 C 83.261719 49.289062 83.25 49.253906 83.25 49.222656 Z M 83.25 49.222656 " fill-opacity="1" fill-rule="nonzero"/></g><g clip-path="url(#6746c3aa19)"><path fill="#000000" d="M 86.878906 53.277344 C 87.039062 53.4375 87.296875 53.4375 87.457031 53.277344 C 87.617188 53.117188 87.617188 52.859375 87.457031 52.699219 C 87.296875 52.542969 87.039062 52.542969 86.878906 52.699219 C 86.71875 52.859375 86.71875 53.117188 86.878906 53.277344 Z M 86.878906 53.277344 " fill-opacity="1" fill-rule="nonzero"/></g><g clip-path="url(#f4e7234922)"><path fill="#000000" d="M 81.808594 37.886719 L 81.808594 33.753906 C 81.808594 33.675781 81.867188 33.617188 81.945312 33.617188 C 82.019531 33.617188 82.078125 33.675781 82.078125 33.753906 L 82.078125 37.886719 C 82.078125 37.960938 82.019531 38.023438 81.945312 38.023438 C 81.867188 38.023438 81.808594 37.960938 81.808594 37.886719 Z M 81.808594 37.886719 " fill-opacity="1" fill-rule="nonzero"/></g><g clip-path="url(#57253b5322)"><path fill="#000000" d="M 81.535156 37.867188 C 81.535156 38.09375 81.71875 38.277344 81.945312 38.277344 C 82.167969 38.277344 82.351562 38.09375 82.351562 37.867188 C 82.351562 37.640625 82.167969 37.460938 81.945312 37.460938 C 81.71875 37.460938 81.535156 37.640625 81.535156 37.867188 Z M 81.535156 37.867188 " fill-opacity="1" fill-rule="nonzero"/></g><path fill="#000000" d="M 82.808594 39.351562 L 82.808594 35 C 82.808594 34.925781 82.871094 34.863281 82.945312 34.863281 C 83.019531 34.863281 83.082031 34.925781 83.082031 35 L 83.082031 39.351562 C 83.082031 39.425781 83.019531 39.488281 82.945312 39.488281 C 82.871094 39.488281 82.808594 39.425781 82.808594 39.351562 Z M 82.808594 39.351562 " fill-opacity="1" fill-rule="nonzero"/><path fill="#000000" d="M 82.535156 39.332031 C 82.535156 39.554688 82.71875 39.738281 82.945312 39.738281 C 83.171875 39.738281 83.355469 39.554688 83.355469 39.332031 C 83.355469 39.105469 83.171875 38.921875 82.945312 38.921875 C 82.71875 38.921875 82.535156 39.105469 82.535156 39.332031 Z M 82.535156 39.332031 " fill-opacity="1" fill-rule="nonzero"/><path fill="#000000" d="M 83.808594 40.777344 L 83.808594 36.164062 C 83.808594 36.085938 83.871094 36.027344 83.945312 36.027344 C 84.019531 36.027344 84.082031 36.085938 84.082031 36.164062 L 84.082031 40.777344 C 84.082031 40.855469 84.019531 40.914062 83.945312 40.914062 C 83.871094 40.914062 83.808594 40.855469 83.808594 40.777344 Z M 83.808594 40.777344 " fill-opacity="1" fill-rule="nonzero"/><path fill="#000000" d="M 83.535156 40.757812 C 83.535156 40.984375 83.71875 41.167969 83.945312 41.167969 C 84.171875 41.167969 84.355469 40.984375 84.355469 40.757812 C 84.355469 40.53125 84.171875 40.351562 83.945312 40.351562 C 83.71875 40.351562 83.535156 40.53125 83.535156 40.757812 Z M 83.535156 40.757812 " fill-opacity="1" fill-rule="nonzero"/><path fill="#000000" d="M 84.894531 41.0625 L 84.894531 37.078125 C 84.894531 37 84.957031 36.941406 85.03125 36.941406 C 85.105469 36.941406 85.167969 37 85.167969 37.078125 L 85.167969 41.0625 C 85.167969 41.136719 85.105469 41.195312 85.03125 41.195312 C 84.957031 41.195312 84.894531 41.136719 84.894531 41.0625 Z M 84.894531 41.0625 " fill-opacity="1" fill-rule="nonzero"/><path fill="#000000" d="M 84.621094 41.042969 C 84.621094 41.265625 84.804688 41.449219 85.03125 41.449219 C 85.257812 41.449219 85.441406 41.265625 85.441406 41.042969 C 85.441406 40.816406 85.257812 40.632812 85.03125 40.632812 C 84.804688 40.632812 84.621094 40.816406 84.621094 41.042969 Z M 84.621094 41.042969 " fill-opacity="1" fill-rule="nonzero"/></svg>